<svg width="66" height="18" viewBox="0 0 66 18" fill="none" xmlns="http://www.w3.org/2000/svg">
<path d="M0.25 17V0.499999H5.87C6.99667 0.499999 7.97333 0.699999 8.8 1.1C9.63333 1.49333 10.2767 2.06333 10.73 2.81C11.19 3.55 11.42 4.44333 11.42 5.49C11.42 6.31667 11.2733 7.06333 10.98 7.73C10.6867 8.39 10.2667 8.94667 9.72 9.4C9.17333 9.85333 8.51 10.19 7.73 10.41L13.13 17H9.02L4.26 10.78H3.49V17H0.25ZM3.49 8.08H4.87C5.54333 8.08 6.11333 7.98333 6.58 7.79C7.04667 7.59667 7.40333 7.31333 7.65 6.94C7.90333 6.56 8.03 6.10667 8.03 5.58C8.03 4.78 7.75333 4.16667 7.2 3.74C6.65333 3.30667 5.87667 3.09 4.87 3.09H3.49V8.08ZM21.3477 17.32C19.281 17.32 17.7177 16.8033 16.6577 15.77C15.5977 14.73 15.0677 13.19 15.0677 11.15V0.499999H18.3077V10.22C18.3077 11.6133 18.5443 12.6167 19.0177 13.23C19.4977 13.8367 20.2743 14.14 21.3477 14.14C22.421 14.14 23.1943 13.8367 23.6677 13.23C24.1477 12.6167 24.3877 11.6133 24.3877 10.22V0.499999H27.6277V11.15C27.6277 13.19 27.0977 14.73 26.0377 15.77C24.9843 16.8033 23.421 17.32 21.3477 17.32ZM31.8516 17V0.499999H35.0916L42.2016 11.6V0.499999H45.4416V17H42.2016L35.0916 5.9V17H31.8516ZM57.0575 17.32C55.9042 17.32 54.8242 17.1 53.8175 16.66C52.8108 16.22 51.9275 15.61 51.1675 14.83C50.4075 14.0433 49.8108 13.1333 49.3775 12.1C48.9508 11.06 48.7375 9.94667 48.7375 8.76C48.7375 7.57333 48.9508 6.46333 49.3775 5.43C49.8108 4.39 50.4075 3.48 51.1675 2.7C51.9275 1.91333 52.8108 1.3 53.8175 0.859999C54.8242 0.419999 55.9042 0.199999 57.0575 0.199999C58.2108 0.199999 59.2908 0.419999 60.2975 0.859999C61.3042 1.3 62.1875 1.91333 62.9475 2.7C63.7075 3.48 64.3008 4.39 64.7275 5.43C65.1608 6.46333 65.3775 7.57333 65.3775 8.76C65.3775 9.94667 65.1608 11.06 64.7275 12.1C64.3008 13.1333 63.7075 14.0433 62.9475 14.83C62.1875 15.61 61.3042 16.22 60.2975 16.66C59.2908 17.1 58.2108 17.32 57.0575 17.32ZM57.0475 14.2C57.7542 14.2 58.4008 14.0667 58.9875 13.8C59.5742 13.5333 60.0842 13.1567 60.5175 12.67C60.9508 12.1833 61.2875 11.61 61.5275 10.95C61.7675 10.2833 61.8875 9.55333 61.8875 8.76C61.8875 7.96667 61.7675 7.24 61.5275 6.58C61.2875 5.91333 60.9508 5.33667 60.5175 4.85C60.0842 4.36333 59.5742 3.98667 58.9875 3.72C58.4008 3.45333 57.7542 3.32 57.0475 3.32C56.3542 3.32 55.7108 3.45333 55.1175 3.72C54.5308 3.98667 54.0208 4.36333 53.5875 4.85C53.1542 5.33667 52.8175 5.91333 52.5775 6.58C52.3442 7.24 52.2275 7.96667 52.2275 8.76C52.2275 9.55333 52.3442 10.2833 52.5775 10.95C52.8175 11.61 53.1542 12.1833 53.5875 12.67C54.0208 13.1567 54.5308 13.5333 55.1175 13.8C55.7108 14.0667 56.3542 14.2 57.0475 14.2Z" fill="#F8F9FA"/>
</svg>
